<?xml version="1.0" encoding="UTF-8"?>
<svg xmlns="http://www.w3.org/2000/svg" xmlns:xlink="http://www.w3.org/1999/xlink" width="200px" height="150px" viewBox="0 50 150 200" version="1.1">
<defs>
<linearGradient id="linear0" gradientUnits="userSpaceOnUse" x1="-2837.7542" y1="-1520.825" x2="2968.2" y2="-1520.825" gradientTransform="matrix(150.144531,0,0,60.167969,-0.0703125,44.90625)">
<stop offset="0" style="stop-color:rgb(3.137255%,10.980392%,30.980392%);stop-opacity:1;"/>
<stop offset="1" style="stop-color:rgb(8.235294%,48.627451%,47.45098%);stop-opacity:1;"/>
</linearGradient>
</defs>
<g id="surface1">
<path style=" stroke:none;fill-rule:nonzero;fill:url(#linear0);" d="M -0.0703125 44.90625 L 150.074219 44.90625 L 150.074219 105.074219 L -0.0703125 105.074219 Z M -0.0703125 44.90625 "/>
<path style=" stroke:none;fill-rule:nonzero;fill:rgb(100%,100%,100%);fill-opacity:1;" d="M 34.042969 97.128906 C 34.027344 97.128906 34.015625 97.128906 33.996094 97.128906 L 19.832031 95.074219 C 19.726562 95.058594 19.632812 94.992188 19.585938 94.894531 C 19.539062 94.800781 19.542969 94.6875 19.59375 94.59375 L 26.136719 83.023438 C 26.195312 82.921875 26.304688 82.855469 26.421875 82.855469 C 26.539062 82.855469 26.644531 82.921875 26.703125 83.023438 L 34.328125 96.648438 C 34.386719 96.757812 34.382812 96.886719 34.3125 96.992188 C 34.25 97.078125 34.148438 97.128906 34.042969 97.128906 Z M 20.394531 94.5 L 33.441406 96.390625 L 26.417969 83.84375 Z M 20.394531 94.5 "/>
<path style=" stroke:none;fill-rule:nonzero;fill:rgb(100%,100%,100%);fill-opacity:1;" d="M 34.042969 97.128906 C 33.933594 97.128906 33.832031 97.074219 33.769531 96.980469 C 33.707031 96.878906 33.703125 96.75 33.761719 96.644531 L 41.269531 83.765625 L 26.414062 83.503906 C 26.414062 83.503906 26.410156 83.507812 26.410156 83.503906 C 26.410156 83.507812 26.410156 83.503906 26.410156 83.503906 C 26.410156 83.503906 26.410156 83.503906 26.40625 83.503906 C 26.394531 83.503906 26.378906 83.503906 26.363281 83.5 L 14.675781 81.492188 L 20.179688 94.625 C 20.226562 94.742188 20.203125 94.878906 20.117188 94.972656 C 20.03125 95.066406 19.902344 95.101562 19.78125 95.0625 L 10.644531 92.140625 C 10.636719 92.140625 10.625 92.136719 10.617188 92.132812 C 10.574219 92.113281 10.535156 92.085938 10.503906 92.054688 C 7.875 89.367188 7.875 89.230469 7.875 89.074219 L 7.875 79.503906 C 7.875 79.484375 7.875 79.464844 7.878906 79.445312 C 7.878906 79.441406 7.878906 79.441406 7.878906 79.441406 C 7.878906 79.441406 7.878906 79.441406 7.882812 79.441406 C 7.882812 79.4375 7.882812 79.433594 7.882812 79.429688 L 9.992188 70.402344 C 10.015625 70.300781 10.082031 70.222656 10.175781 70.179688 L 13.632812 68.613281 C 13.6875 68.585938 13.742188 68.578125 13.796875 68.582031 L 22.820312 69.285156 C 22.832031 69.289062 22.84375 69.289062 22.855469 69.289062 C 22.863281 69.292969 22.871094 69.292969 22.878906 69.296875 L 34.371094 72.25 L 46.621094 69.457031 C 46.628906 69.453125 46.636719 69.453125 46.644531 69.449219 C 46.65625 69.449219 46.667969 69.449219 46.679688 69.449219 L 57.976562 68.796875 C 58.078125 68.792969 58.171875 68.832031 58.238281 68.90625 C 58.304688 68.980469 58.332031 69.078125 58.316406 69.175781 L 56.230469 81.429688 L 64.0625 80.066406 L 65.882812 78.347656 C 65.980469 78.257812 66.121094 78.234375 66.242188 78.289062 C 66.363281 78.34375 66.4375 78.46875 66.429688 78.601562 L 65.78125 90.390625 C 65.773438 90.554688 65.636719 90.6875 65.46875 90.695312 C 65.296875 90.699219 65.15625 90.578125 65.136719 90.410156 L 63.933594 80.746094 L 56.285156 82.082031 L 60.621094 92.84375 C 60.660156 92.933594 60.652344 93.035156 60.609375 93.121094 C 60.5625 93.203125 60.484375 93.265625 60.390625 93.285156 L 49.308594 95.664062 C 49.296875 95.664062 49.289062 95.667969 49.277344 95.667969 C 49.277344 95.667969 49.273438 95.667969 49.273438 95.667969 C 49.273438 95.667969 49.269531 95.667969 49.269531 95.667969 L 34.074219 97.128906 C 34.066406 97.128906 34.054688 97.128906 34.042969 97.128906 Z M 41.839844 84.082031 L 34.644531 96.421875 L 48.6875 95.074219 Z M 55.804688 82.628906 L 49.820312 94.890625 L 59.875 92.730469 Z M 42.375 83.714844 L 49.203125 94.675781 L 55.28125 82.21875 Z M 11.148438 91.621094 L 19.308594 94.226562 L 14.1875 82.011719 Z M 8.523438 88.988281 C 8.695312 89.21875 9.402344 89.980469 10.199219 90.804688 L 8.523438 82.683594 Z M 8.625 79.953125 L 10.808594 90.546875 L 13.734375 81.300781 Z M 64.558594 80.492188 L 65.332031 86.738281 L 65.738281 79.378906 Z M 27.0625 82.867188 L 41.207031 83.117188 L 34.355469 73.140625 Z M 46.800781 70.445312 L 42.3125 83.070312 L 55.234375 81.570312 Z M 14.726562 80.84375 L 25.976562 82.777344 L 22.65625 70.335938 Z M 34.90625 72.792969 L 41.738281 82.742188 L 46.191406 70.21875 Z M 23.253906 70.0625 L 26.5625 82.453125 L 33.816406 72.777344 Z M 47.324219 70.0625 L 55.640625 81.035156 L 57.609375 69.46875 Z M 8.675781 79.292969 L 13.808594 80.648438 L 13.480469 70.148438 Z M 14.105469 69.257812 L 14.441406 80.140625 L 22.183594 69.886719 Z M 10.585938 70.703125 L 9.089844 77.109375 L 13.042969 69.59375 Z M 10.585938 70.703125 "/>
<path style=" stroke:none;fill-rule:nonzero;fill:rgb(100%,100%,100%);fill-opacity:1;" d="M 60.324219 93.292969 C 60.246094 93.292969 60.171875 93.265625 60.113281 93.214844 C 60.011719 93.132812 59.972656 92.996094 60.011719 92.871094 L 63.886719 80.335938 L 62.917969 70.507812 C 62.902344 70.34375 63.011719 70.195312 63.171875 70.160156 C 63.332031 70.121094 63.492188 70.210938 63.546875 70.367188 L 66.414062 78.476562 L 65.800781 78.695312 L 63.828125 73.101562 L 64.539062 80.339844 C 64.542969 80.382812 64.539062 80.425781 64.527344 80.464844 L 60.859375 92.332031 L 65.3125 90.082031 L 65.605469 90.660156 L 60.46875 93.257812 C 60.421875 93.28125 60.371094 93.292969 60.324219 93.292969 Z M 60.324219 93.292969 "/>
<path style=" stroke:none;fill-rule:nonzero;fill:rgb(100%,100%,100%);fill-opacity:1;" d="M 63.242188 70.800781 C 63.214844 70.800781 63.1875 70.796875 63.160156 70.789062 L 57.914062 69.4375 C 57.789062 69.402344 57.691406 69.292969 57.675781 69.164062 L 56.757812 61.699219 C 56.738281 61.550781 56.824219 61.410156 56.960938 61.359375 C 57.101562 61.304688 57.257812 61.351562 57.34375 61.476562 L 63.507812 70.289062 C 63.585938 70.398438 63.585938 70.546875 63.507812 70.660156 C 63.445312 70.75 63.347656 70.800781 63.242188 70.800781 Z M 58.292969 68.863281 L 62.472656 69.941406 L 57.558594 62.914062 Z M 58.292969 68.863281 "/>
<path style=" stroke:none;fill-rule:nonzero;fill:rgb(100%,100%,100%);fill-opacity:1;" d="M 34.691406 72.605469 L 34.046875 72.5625 L 34.707031 62.285156 L 22.972656 69.882812 C 22.871094 69.949219 22.734375 69.953125 22.628906 69.886719 C 22.523438 69.820312 22.460938 69.703125 22.476562 69.578125 L 23.414062 60.074219 L 13.992188 69.140625 C 13.886719 69.246094 13.71875 69.261719 13.589844 69.179688 C 13.464844 69.097656 13.410156 68.9375 13.464844 68.796875 L 15.292969 63.75 L 10.574219 70.65625 L 10.039062 70.292969 L 16.203125 61.261719 C 16.296875 61.128906 16.472656 61.082031 16.621094 61.15625 C 16.765625 61.230469 16.832031 61.402344 16.777344 61.554688 L 14.550781 67.707031 L 23.601562 58.992188 C 23.699219 58.898438 23.84375 58.875 23.96875 58.9375 C 24.089844 58.996094 24.160156 59.125 24.148438 59.257812 L 23.1875 68.96875 L 34.894531 61.386719 C 35 61.320312 35.128906 61.320312 35.234375 61.378906 C 35.339844 61.441406 35.402344 61.558594 35.394531 61.679688 Z M 34.691406 72.605469 "/>
<path style=" stroke:none;fill-rule:nonzero;fill:rgb(100%,100%,100%);fill-opacity:1;" d="M 57.078125 61.984375 C 57.050781 61.984375 57.023438 61.984375 56.996094 61.976562 L 47.644531 59.542969 C 47.523438 59.511719 47.433594 59.417969 47.40625 59.296875 L 46.488281 55.082031 C 46.460938 54.953125 46.511719 54.820312 46.621094 54.746094 C 46.726562 54.667969 46.871094 54.667969 46.980469 54.738281 L 57.253906 61.390625 C 57.386719 61.476562 57.4375 61.644531 57.375 61.792969 C 57.320312 61.914062 57.203125 61.984375 57.078125 61.984375 Z M 48 58.964844 L 55.214844 60.839844 L 47.289062 55.710938 Z M 48 58.964844 "/>
<path style=" stroke:none;fill-rule:nonzero;fill:rgb(100%,100%,100%);fill-opacity:1;" d="M 35.070312 61.984375 C 34.988281 61.984375 34.90625 61.953125 34.847656 61.894531 C 34.769531 61.824219 34.734375 61.71875 34.75 61.613281 L 35.832031 54.421875 C 35.847656 54.324219 35.90625 54.238281 35.992188 54.1875 C 36.082031 54.140625 36.183594 54.132812 36.277344 54.171875 L 47.847656 58.929688 C 47.980469 58.984375 48.0625 59.117188 48.046875 59.261719 C 48.035156 59.40625 47.925781 59.519531 47.785156 59.546875 L 35.132812 61.980469 C 35.113281 61.984375 35.09375 61.984375 35.070312 61.984375 Z M 36.410156 54.925781 L 35.460938 61.253906 L 46.59375 59.113281 Z M 36.410156 54.925781 "/>
<path style=" stroke:none;fill-rule:nonzero;fill:rgb(100%,100%,100%);fill-opacity:1;" d="M 63.929688 80.527344 L 57.738281 69.324219 L 47.980469 59.925781 L 47.019531 69.804688 C 47.007812 69.917969 46.9375 70.019531 46.832031 70.066406 C 46.726562 70.113281 46.605469 70.105469 46.511719 70.039062 L 34.9375 61.964844 L 23.839844 59.5625 L 16.566406 61.753906 C 16.410156 61.804688 16.242188 61.726562 16.175781 61.578125 C 16.109375 61.429688 16.164062 61.253906 16.300781 61.167969 L 26.792969 54.734375 C 26.8125 54.722656 26.835938 54.710938 26.859375 54.703125 C 26.859375 54.703125 26.859375 54.703125 26.863281 54.703125 C 26.863281 54.703125 26.863281 54.703125 26.867188 54.703125 C 26.875 54.699219 26.886719 54.699219 26.894531 54.695312 L 26.898438 54.695312 C 26.902344 54.695312 26.902344 54.695312 26.902344 54.695312 L 37.09375 52.855469 C 37.132812 52.851562 37.175781 52.851562 37.214844 52.859375 L 46.863281 54.695312 C 47.03125 54.726562 47.148438 54.882812 47.125 55.054688 C 47.105469 55.222656 46.957031 55.347656 46.789062 55.339844 L 36.203125 54.800781 L 24.953125 59.144531 L 35.140625 61.347656 C 35.179688 61.359375 35.222656 61.375 35.257812 61.398438 L 46.425781 69.191406 L 47.398438 59.203125 C 47.414062 59.078125 47.492188 58.972656 47.609375 58.929688 C 47.726562 58.886719 47.859375 58.914062 47.949219 59 L 58.222656 68.894531 C 58.242188 68.914062 58.265625 68.941406 58.28125 68.96875 L 64.496094 80.214844 Z M 25.699219 56.167969 L 18.777344 60.410156 L 23.628906 58.949219 Z M 27.132812 55.324219 L 24.753906 58.523438 L 34.097656 54.914062 Z M 36.789062 54.175781 L 42.117188 54.449219 L 37.289062 53.527344 Z M 36.382812 53.640625 L 32.347656 54.371094 L 35.988281 54.15625 Z M 36.382812 53.640625 "/>
<path style=" stroke:none;fill-rule:nonzero;fill:rgb(100%,100%,100%);fill-opacity:1;" d="M 74.375 83.511719 L 74.710938 65.617188 L 76.109375 65.617188 L 84.5625 81.675781 L 84.5625 79.632812 C 84.5625 74.425781 84.660156 69.746094 84.847656 65.589844 L 86.324219 65.875 C 86.511719 69.617188 86.667969 75.78125 86.789062 84.367188 C 86.425781 84.519531 86.046875 84.597656 85.648438 84.597656 C 85.0625 84.597656 84.453125 84.425781 83.8125 84.082031 C 82.761719 82.460938 81.453125 80.089844 79.882812 76.96875 C 78.332031 73.847656 77.226562 71.710938 76.574219 70.554688 C 76.589844 71.730469 76.597656 73.867188 76.597656 76.96875 C 76.617188 80.074219 76.652344 82.425781 76.703125 84.03125 C 76.546875 84.5625 76.246094 84.832031 75.796875 84.832031 C 75.488281 84.832031 75.183594 84.703125 74.890625 84.441406 C 74.617188 84.183594 74.445312 83.875 74.375 83.511719 Z M 88.46875 84.3125 L 88.417969 83.046875 C 90.003906 82.789062 90.984375 82.648438 91.367188 82.632812 C 91.382812 82.046875 91.390625 81.167969 91.390625 79.996094 C 91.390625 78.445312 91.355469 76.210938 91.289062 73.296875 C 91.21875 70.367188 91.175781 68.425781 91.160156 67.480469 L 88.546875 67.351562 L 88.367188 65.851562 C 89.074219 65.867188 90.167969 65.875 91.648438 65.875 C 93.167969 65.875 94.296875 65.882812 95.039062 65.902344 L 95.113281 67.195312 C 94.820312 67.316406 94.40625 67.394531 93.875 67.425781 C 93.339844 67.445312 93.003906 67.460938 92.863281 67.480469 C 92.917969 67.960938 92.941406 69.175781 92.941406 71.125 C 92.960938 73.074219 92.96875 75.226562 92.96875 77.589844 C 92.96875 79.953125 92.984375 81.632812 93.019531 82.632812 C 93.296875 82.683594 93.820312 82.746094 94.597656 82.8125 C 95.375 82.882812 95.855469 82.933594 96.046875 82.96875 L 95.996094 84.3125 C 95.476562 84.296875 94.65625 84.289062 93.539062 84.289062 C 92.953125 84.289062 92.082031 84.296875 90.925781 84.3125 C 89.769531 84.3125 88.953125 84.3125 88.46875 84.3125 Z M 108.457031 84.417969 L 106.183594 84.417969 C 105.613281 83.882812 105.011719 83.269531 104.371094 82.582031 C 103.734375 81.890625 103.210938 81.304688 102.796875 80.824219 C 102.398438 80.339844 101.839844 79.660156 101.113281 78.78125 C 100.40625 77.882812 99.90625 77.253906 99.613281 76.890625 L 99.949219 83.875 C 99.796875 84.390625 99.492188 84.648438 99.046875 84.648438 C 98.734375 84.648438 98.433594 84.53125 98.140625 84.289062 C 97.863281 84.03125 97.691406 83.71875 97.625 83.355469 C 97.675781 81.976562 97.71875 79.117188 97.753906 74.769531 C 97.789062 70.425781 97.863281 67.21875 97.984375 65.152344 L 99.148438 65.410156 C 99.199219 66.273438 99.261719 67.773438 99.332031 69.910156 C 99.398438 72.03125 99.449219 73.445312 99.484375 74.152344 C 99.777344 73.789062 100.320312 73.125 101.113281 72.160156 C 101.925781 71.175781 102.476562 70.511719 102.769531 70.167969 C 103.078125 69.804688 103.519531 69.289062 104.089844 68.617188 C 104.675781 67.945312 105.207031 67.359375 105.691406 66.859375 C 106.175781 66.359375 106.691406 65.851562 107.242188 65.332031 L 108.019531 66.601562 C 107.398438 67.632812 104.992188 70.566406 100.804688 75.390625 C 101.40625 76.03125 102.648438 77.511719 104.527344 79.839844 C 106.425781 82.167969 107.734375 83.691406 108.457031 84.417969 Z M 117.457031 65.644531 L 118.957031 65.332031 C 119.269531 67.761719 119.457031 71.140625 119.527344 75.46875 C 119.613281 79.78125 119.699219 82.632812 119.785156 84.03125 C 119.628906 84.5625 119.328125 84.832031 118.878906 84.832031 C 118.570312 84.832031 118.269531 84.703125 117.976562 84.441406 C 117.699219 84.183594 117.527344 83.875 117.457031 83.511719 C 117.476562 82.890625 117.484375 81.855469 117.484375 80.410156 L 117.484375 75.316406 C 117.105469 75.332031 116.570312 75.375 115.878906 75.445312 C 115.207031 75.496094 114.585938 75.539062 114.019531 75.574219 C 113.46875 75.609375 112.941406 75.625 112.441406 75.625 C 111.992188 75.625 111.664062 75.617188 111.457031 75.597656 C 111.492188 76.652344 111.554688 78.140625 111.640625 80.074219 C 111.726562 81.988281 111.785156 83.304688 111.820312 84.03125 C 111.664062 84.5625 111.363281 84.832031 110.914062 84.832031 C 110.605469 84.832031 110.304688 84.703125 110.011719 84.441406 C 109.734375 84.183594 109.5625 83.875 109.492188 83.511719 C 109.542969 82.03125 109.589844 79.152344 109.621094 74.875 C 109.675781 70.597656 109.761719 67.417969 109.882812 65.332031 L 111.042969 65.589844 C 111.042969 65.644531 111.042969 65.730469 111.042969 65.851562 C 111.0625 65.953125 111.070312 66.039062 111.070312 66.109375 C 111.292969 70.347656 111.425781 73.003906 111.457031 74.074219 C 112.042969 74.023438 112.664062 73.96875 113.320312 73.917969 C 113.992188 73.847656 114.726562 73.78125 115.519531 73.710938 C 116.328125 73.625 116.957031 73.566406 117.40625 73.53125 C 117.421875 73.53125 117.433594 73.445312 117.433594 73.273438 C 117.433594 73.097656 117.433594 72.402344 117.433594 71.175781 C 117.449219 69.953125 117.457031 68.109375 117.457031 65.644531 Z M 121.464844 84.3125 L 121.414062 83.046875 C 123 82.789062 123.984375 82.648438 124.363281 82.632812 C 124.378906 82.046875 124.386719 81.167969 124.386719 79.996094 C 124.386719 78.445312 124.355469 76.210938 124.285156 73.296875 C 124.214844 70.367188 124.171875 68.425781 124.15625 67.480469 L 121.542969 67.351562 L 121.363281 65.851562 C 122.070312 65.867188 123.164062 65.875 124.648438 65.875 C 126.164062 65.875 127.292969 65.882812 128.035156 65.902344 L 128.113281 67.195312 C 127.820312 67.316406 127.40625 67.394531 126.871094 67.425781 C 126.335938 67.445312 126 67.460938 125.863281 67.480469 C 125.914062 67.960938 125.941406 69.175781 125.941406 71.125 C 125.957031 73.074219 125.964844 75.226562 125.964844 77.589844 C 125.964844 79.953125 125.984375 81.632812 126.019531 82.632812 C 126.292969 82.683594 126.820312 82.746094 127.59375 82.8125 C 128.371094 82.882812 128.855469 82.933594 129.042969 82.96875 L 128.992188 84.3125 C 128.472656 84.296875 127.65625 84.289062 126.535156 84.289062 C 125.949219 84.289062 125.078125 84.296875 123.921875 84.3125 C 122.769531 84.3125 121.949219 84.3125 121.464844 84.3125 Z M 130.800781 65.695312 L 132.351562 65.851562 C 132.613281 68.488281 132.863281 73.917969 133.101562 82.140625 C 134.257812 82.074219 135.722656 82.039062 137.5 82.039062 C 139.273438 82.039062 140.699219 82.011719 141.765625 81.960938 C 141.871094 82.253906 141.9375 82.667969 141.972656 83.203125 C 142.023438 83.734375 142.078125 84.132812 142.128906 84.390625 C 139.871094 84.253906 136.992188 84.183594 133.492188 84.183594 L 130.621094 84.183594 C 130.707031 81.632812 130.75 78.21875 130.75 73.945312 C 130.765625 69.667969 130.785156 66.917969 130.800781 65.695312 Z M 130.800781 65.695312 "/>
</g>
</svg>
